<?xml version="1.0" encoding="UTF-8" standalone="no"?>
<svg
   xmlns:dc="http://purl.org/dc/elements/1.1/"
   xmlns:cc="http://creativecommons.org/ns#"
   xmlns:rdf="http://www.w3.org/1999/02/22-rdf-syntax-ns#"
   xmlns:svg="http://www.w3.org/2000/svg"
   xmlns="http://www.w3.org/2000/svg"
   xmlns:sodipodi="http://sodipodi.sourceforge.net/DTD/sodipodi-0.dtd"
   xmlns:inkscape="http://www.inkscape.org/namespaces/inkscape"
   aria-hidden="true"
   focusable="false"
   data-prefix="far"
   data-icon="envelope"
   class="svg-inline--fa fa-envelope fa-w-16"
   role="img"
   viewBox="0 0 512 512"
   version="1.1"
   id="svg3735"
   sodipodi:docname="envelope-regular-white.svg"
   inkscape:version="0.92.4 (5da689c313, 2019-01-14)">
  <metadata
     id="metadata3741">
    <rdf:RDF>
      <cc:Work
         rdf:about="">
        <dc:format>image/svg+xml</dc:format>
        <dc:type
           rdf:resource="http://purl.org/dc/dcmitype/StillImage" />
        <dc:title></dc:title>
      </cc:Work>
    </rdf:RDF>
  </metadata>
  <defs
     id="defs3739" />
  <sodipodi:namedview
     pagecolor="#ffffff"
     bordercolor="#666666"
     borderopacity="1"
     objecttolerance="10"
     gridtolerance="10"
     guidetolerance="10"
     inkscape:pageopacity="0"
     inkscape:pageshadow="2"
     inkscape:window-width="3440"
     inkscape:window-height="1417"
     id="namedview3737"
     showgrid="false"
     inkscape:zoom="2.3242188"
     inkscape:cx="256"
     inkscape:cy="256"
     inkscape:window-x="1912"
     inkscape:window-y="-8"
     inkscape:window-maximized="1"
     inkscape:current-layer="svg3735" />
  <path
     fill="currentColor"
     d="M464 64H48C21.49 64 0 85.49 0 112v288c0 26.51 21.49 48 48 48h416c26.51 0 48-21.49 48-48V112c0-26.51-21.49-48-48-48zm0 48v40.805c-22.422 18.259-58.168 46.651-134.587 106.49-16.841 13.247-50.201 45.072-73.413 44.701-23.208.375-56.579-31.459-73.413-44.701C106.18 199.465 70.425 171.067 48 152.805V112h416zM48 400V214.398c22.914 18.251 55.409 43.862 104.938 82.646 21.857 17.205 60.134 55.186 103.062 54.955 42.717.231 80.509-37.199 103.053-54.947 49.528-38.783 82.032-64.401 104.947-82.653V400H48z"
     id="path3733" />
  <path
     style="fill:#ffffff;fill-opacity:1;stroke-width:0.4302521"
     d="M 41.94958,447.40739 C 28.766676,445.76071 15.804154,437.75644 8.4700943,426.73402 3.6501779,419.49014 1.1720019,412.3512 0.43129185,403.57647 c -0.56618419,-6.70723 -0.56618419,-288.44571 0,-295.15294 C 0.6610114,105.70218 1.3347784,101.67378 1.9285519,99.471522 6.9521042,80.839558 23.053621,66.952886 42.379832,64.584521 47.516986,63.954979 463.97556,63.91153 469.45973,64.539963 c 19.17784,2.197613 35.59277,16.316666 40.61171,34.931559 0.59379,2.202258 1.26756,6.230658 1.49728,8.952008 0.56616,6.70723 0.56616,288.44571 0,295.15294 -0.22972,2.72135 -0.90349,6.74975 -1.49728,8.95201 -5.01308,18.59309 -21.16539,32.52357 -40.45127,34.887 -4.76491,0.58393 -422.994391,0.57601 -427.67059,-0.008 z M 464.24202,307.2 c 0,-51.11395 -0.093,-92.93445 -0.20661,-92.93445 -0.11359,0 -8.10014,6.25314 -17.7479,13.89587 -9.64771,7.64273 -34.19205,26.98 -54.54297,42.97172 -20.35093,15.99172 -41.26118,32.60257 -46.46723,36.91301 -20.98821,17.37755 -34.1853,26.44307 -48.61849,33.39769 C 281.46159,348.7666 270.037,351.62831 256,351.62831 c -14.37691,0 -25.75412,-2.9169 -41.51933,-10.64476 -14.91065,-7.30896 -26.87178,-15.61885 -49.81311,-34.60721 -5.15319,-4.26524 -27.41873,-21.93298 -49.479,-39.26163 -22.06026,-17.32866 -46.155432,-36.30872 -53.544818,-42.1779 -7.389387,-5.8692 -13.536614,-10.67126 -13.660505,-10.67126 -0.123891,0 -0.225254,41.8205 -0.225254,92.93445 v 92.93445 H 256 464.24202 Z m -201.87766,-3.6959 c 4.58735,-0.94634 7.69818,-2.04373 13.21211,-4.66079 10.9907,-5.21647 22.06064,-13.04435 43.24034,-30.5765 4.61445,-3.81975 24.26622,-19.4116 43.67058,-34.64855 42.90867,-33.69328 56.59335,-44.51644 82.06973,-64.90858 L 464.2403,152.95462 V 132.41008 111.86555 H 255.99828 47.756262 l 4.3e-4,20.54453 4.31e-4,20.54454 20.759044,16.60976 c 22.788771,18.23379 52.523653,41.72691 90.890143,71.81107 13.72504,10.76216 28.34286,22.3856 32.48403,25.82987 16.13432,13.41914 25.98305,20.85689 34.89593,26.35336 14.53999,8.96665 25.48652,12.02681 35.57599,9.94542 z"
     id="path3743"
     inkscape:connector-curvature="0" />
</svg>
