<?xml version="1.0" encoding="UTF-8" standalone="no"?>
<svg
   xmlns:dc="http://purl.org/dc/elements/1.1/"
   xmlns:cc="http://creativecommons.org/ns#"
   xmlns:rdf="http://www.w3.org/1999/02/22-rdf-syntax-ns#"
   xmlns:svg="http://www.w3.org/2000/svg"
   xmlns="http://www.w3.org/2000/svg"
   xmlns:sodipodi="http://sodipodi.sourceforge.net/DTD/sodipodi-0.dtd"
   xmlns:inkscape="http://www.inkscape.org/namespaces/inkscape"
   aria-hidden="true"
   focusable="false"
   data-prefix="fas"
   data-icon="phone"
   class="svg-inline--fa fa-phone fa-w-16"
   role="img"
   viewBox="0 0 512 512"
   version="1.1"
   id="svg4"
   sodipodi:docname="phone-solid-white.svg"
   inkscape:version="0.92.4 (5da689c313, 2019-01-14)">
  <metadata
     id="metadata10">
    <rdf:RDF>
      <cc:Work
         rdf:about="">
        <dc:format>image/svg+xml</dc:format>
        <dc:type
           rdf:resource="http://purl.org/dc/dcmitype/StillImage" />
        <dc:title></dc:title>
      </cc:Work>
    </rdf:RDF>
  </metadata>
  <defs
     id="defs8" />
  <sodipodi:namedview
     pagecolor="#ffffff"
     bordercolor="#666666"
     borderopacity="1"
     objecttolerance="10"
     gridtolerance="10"
     guidetolerance="10"
     inkscape:pageopacity="0"
     inkscape:pageshadow="2"
     inkscape:window-width="3440"
     inkscape:window-height="1417"
     id="namedview6"
     showgrid="false"
     inkscape:zoom="0.4609375"
     inkscape:cx="256"
     inkscape:cy="256"
     inkscape:window-x="1912"
     inkscape:window-y="-8"
     inkscape:window-maximized="1"
     inkscape:current-layer="svg4" />
  <path
     fill="currentColor"
     d="M493.4 24.6l-104-24c-11.3-2.6-22.9 3.3-27.5 13.9l-48 112c-4.2 9.8-1.4 21.3 6.9 28l60.6 49.6c-36 76.7-98.9 140.5-177.2 177.2l-49.6-60.6c-6.8-8.3-18.2-11.1-28-6.9l-112 48C3.9 366.5-2 378.1.6 389.4l24 104C27.1 504.2 36.7 512 48 512c256.1 0 464-207.5 464-464 0-11.2-7.7-20.9-18.6-23.4z"
     id="path2" />
  <path
     style="fill:#ffffff;fill-opacity:1;stroke-width:2.16949153"
     d="m 40.539346,508.74576 c -3.578201,-1.19322 -8.287331,-4.61017 -10.464731,-7.59322 -2.321683,-3.18071 -9.224626,-28.3024 -16.691731,-60.74576 -13.63457474,-59.24001 -13.88804988,-63.66054 -4.1766129,-72.83899 2.6924829,-2.5447 31.7287169,-16.06246 64.5249639,-30.03947 65.991395,-28.12401 67.747365,-28.47429 79.601025,-15.87864 3.63783,3.86556 16.15354,18.74354 27.81268,33.06218 11.65915,14.31865 22.28813,26.30207 23.61997,26.62984 3.33904,0.82174 37.83021,-19.10185 58.72179,-33.92026 24.50171,-17.37904 60.74897,-53.01343 79.15307,-77.81476 17.10377,-23.04902 39.65115,-60.89244 38.69957,-64.95317 -0.32647,-1.39312 -14.52176,-13.9206 -31.54508,-27.83884 -32.16577,-26.2987 -38.76461,-34.32496 -36.31215,-44.16698 3.08222,-12.36929 49.72833,-118.833957 54.08427,-123.4414189 9.18121,-9.71136708 13.60033,-9.4579775 72.8404,4.1766129 32.50224,7.480656 57.55928,14.367488 60.74576,16.695741 8.53075,6.233096 10.25905,15.530619 8.52367,45.853578 -5.18007,90.514127 -36.71233,176.202087 -92.45103,251.232997 -15.98503,21.51776 -68.54222,74.07495 -90.05998,90.05998 -75.38245,55.99987 -162.44012,87.87373 -252.11719,92.30603 -16.844961,0.83256 -30.59512,0.51959 -34.508664,-0.78545 z"
     id="path12"
     inkscape:connector-curvature="0" />
</svg>
