<?xml version="1.0" encoding="UTF-8" standalone="no"?>
<svg
   xmlns:dc="http://purl.org/dc/elements/1.1/"
   xmlns:cc="http://creativecommons.org/ns#"
   xmlns:rdf="http://www.w3.org/1999/02/22-rdf-syntax-ns#"
   xmlns:svg="http://www.w3.org/2000/svg"
   xmlns="http://www.w3.org/2000/svg"
   xmlns:sodipodi="http://sodipodi.sourceforge.net/DTD/sodipodi-0.dtd"
   xmlns:inkscape="http://www.inkscape.org/namespaces/inkscape"
   aria-hidden="true"
   focusable="false"
   data-prefix="fas"
   data-icon="shopping-cart"
   class="svg-inline--fa fa-shopping-cart fa-w-18"
   role="img"
   viewBox="0 0 576 512"
   version="1.1"
   id="svg4"
   sodipodi:docname="shopping-cart-solid-white.svg"
   inkscape:version="0.92.4 (5da689c313, 2019-01-14)">
  <metadata
     id="metadata10">
    <rdf:RDF>
      <cc:Work
         rdf:about="">
        <dc:format>image/svg+xml</dc:format>
        <dc:type
           rdf:resource="http://purl.org/dc/dcmitype/StillImage" />
        <dc:title></dc:title>
      </cc:Work>
    </rdf:RDF>
  </metadata>
  <defs
     id="defs8" />
  <sodipodi:namedview
     pagecolor="#ffffff"
     bordercolor="#666666"
     borderopacity="1"
     objecttolerance="10"
     gridtolerance="10"
     guidetolerance="10"
     inkscape:pageopacity="0"
     inkscape:pageshadow="2"
     inkscape:window-width="3440"
     inkscape:window-height="1417"
     id="namedview6"
     showgrid="false"
     inkscape:zoom="0.4609375"
     inkscape:cx="288"
     inkscape:cy="256"
     inkscape:window-x="1912"
     inkscape:window-y="-8"
     inkscape:window-maximized="1"
     inkscape:current-layer="svg4" />
  <path
     fill="currentColor"
     d="M528.12 301.319l47.273-208C578.806 78.301 567.391 64 551.99 64H159.208l-9.166-44.81C147.758 8.021 137.93 0 126.529 0H24C10.745 0 0 10.745 0 24v16c0 13.255 10.745 24 24 24h69.883l70.248 343.435C147.325 417.1 136 435.222 136 456c0 30.928 25.072 56 56 56s56-25.072 56-56c0-15.674-6.447-29.835-16.824-40h209.647C430.447 426.165 424 440.326 424 456c0 30.928 25.072 56 56 56s56-25.072 56-56c0-22.172-12.888-41.332-31.579-50.405l5.517-24.276c3.413-15.018-8.002-29.319-23.403-29.319H218.117l-6.545-32h293.145c11.206 0 20.92-7.754 23.403-18.681z"
     id="path2" />
  <path
     style="fill:#ffffff;fill-opacity:1;stroke-width:2.16949153"
     d="m 182.01332,509.45944 c -26.07941,-4.55253 -44.25061,-26.3321 -44.25061,-53.03773 0,-16.57722 5.84679,-29.81817 18.02507,-40.82051 4.70316,-4.24903 8.5512,-8.75776 8.5512,-10.01942 0,-1.84717 -59.4762,-294.32801 -67.585949,-332.361441 L 94.555709,62.915254 H 55.467685 16.379661 L 9.0033898,55.538983 C 1.9321496,48.467742 1.6271186,47.492977 1.6271186,31.967152 c 0,-19.055445 4.0285098,-26.1325898 16.9122404,-29.710834 10.451302,-2.902677 103.249641,-2.902677 113.700941,0 11.84395,3.2894612 15.26259,9.391613 21.00453,37.492331 l 5.17703,25.336097 H 359.0211 559.62034 l 7.37627,7.376271 c 5.22379,5.223793 7.37627,9.34359 7.37627,14.118016 0,10.276341 -47.47761,216.919057 -51.11367,222.468377 -1.75146,2.67307 -5.65739,5.98686 -8.67986,7.36397 -3.98336,1.81495 -46.71896,2.50387 -155.32032,2.50387 -133.716,0 -149.68774,0.35758 -148.54878,3.32564 0.70189,1.8291 2.4395,9.63927 3.86136,17.35593 l 2.58516,14.0303 h 137.49546 c 151.29545,0 146.91698,-0.38055 152.5671,13.26004 2.42946,5.86522 2.36687,9.48217 -0.3991,23.06202 l -3.28044,16.10583 7.63843,5.19044 c 13.20587,8.97363 24.09819,29.05793 24.13171,44.49638 0.007,3.06478 -1.42425,10.38681 -3.17983,16.27119 -15.31567,51.33587 -89.41275,50.61246 -104.52215,-1.02047 -5.21667,-17.82673 -1.77957,-33.36879 11.44183,-51.73831 l 3.51334,-4.88136 H 337.07817 c -58.01671,0 -105.48495,0.42327 -105.48495,0.94058 0,0.51734 3.01227,5.78634 6.69397,11.70892 25.07756,40.34139 -9.26035,90.64392 -56.27387,82.43706 z"
     id="path3715"
     inkscape:connector-curvature="0" />
</svg>
