<svg width="227" height="266" viewBox="0 0 227 266" fill="none" xmlns="http://www.w3.org/2000/svg">
<line x1="2" x2="2" y2="230" stroke="white" stroke-width="2"/>
<line x1="226" x2="226" y2="230" stroke="white" stroke-width="2"/>
<line x1="1" y1="229" x2="227" y2="229" stroke="white" stroke-width="2"/>
<line x1="1" y1="1" x2="227" y2="1" stroke="white" stroke-width="2"/>
<rect x="23" y="128" width="8" height="33" fill="white"/>
<rect x="23" y="174" width="8" height="33" fill="white"/>
<rect x="43" y="128" width="8" height="33" fill="white"/>
<rect x="23" y="148" width="8" height="28" transform="rotate(-90 23 148)" fill="white"/>
<rect x="23" y="182" width="8" height="24" transform="rotate(-90 23 182)" fill="white"/>
<rect x="23" y="194" width="7" height="20" transform="rotate(-90 23 194)" fill="white"/>
<rect x="66" y="128" width="8" height="33" fill="white"/>
<rect x="66" y="174" width="8" height="33" fill="white"/>
<path d="M12.4658 260H10.3994V252.442H3.81836V260H1.76318V243.648H3.81836V250.679H10.3994V243.648H12.4658V260ZM21.3909 260H19.3357V243.648H21.3909V260ZM35.7964 252.779H30.2711V260H28.2159V243.648H36.7286V245.423H30.2711V251.016H35.7964V252.779ZM44.6317 260H42.5765V243.648H44.6317V260ZM61.7101 254.812C61.6202 256.563 61.1261 257.904 60.2277 258.832C59.3367 259.76 58.0752 260.225 56.443 260.225C54.8033 260.225 53.5006 259.603 52.5348 258.36C51.569 257.11 51.0861 255.418 51.0861 253.284V250.319C51.0861 248.193 51.5802 246.512 52.5685 245.277C53.5642 244.042 54.9194 243.424 56.6339 243.424C58.2137 243.424 59.434 243.899 60.295 244.85C61.1635 245.793 61.6352 247.145 61.7101 248.904H59.6324C59.5426 247.572 59.2618 246.621 58.7902 246.052C58.3185 245.483 57.5997 245.198 56.6339 245.198C55.5183 245.198 54.6611 245.636 54.0621 246.512C53.4632 247.381 53.1637 248.657 53.1637 250.342V253.34C53.1637 254.995 53.4407 256.264 53.9947 257.147C54.5563 258.031 55.3724 258.473 56.443 258.473C57.5136 258.473 58.2848 258.207 58.7565 257.675C59.2281 257.144 59.5201 256.189 59.6324 254.812H61.7101ZM78.3617 253.262C78.3617 255.493 77.8863 257.211 76.9354 258.417C75.9846 259.622 74.6332 260.225 72.8812 260.225C71.1967 260.225 69.864 259.641 68.8832 258.473C67.9099 257.297 67.4045 255.639 67.3671 253.498V250.42C67.3671 248.234 67.85 246.523 68.8158 245.288C69.7816 244.045 71.1293 243.424 72.8588 243.424C74.5808 243.424 75.921 244.019 76.8793 245.209C77.8451 246.392 78.3393 248.084 78.3617 250.286V253.262ZM76.3065 250.398C76.3065 248.668 76.022 247.384 75.453 246.546C74.8915 245.7 74.0268 245.277 72.8588 245.277C71.7283 245.277 70.871 245.704 70.287 246.557C69.7105 247.411 69.4185 248.668 69.411 250.331V253.262C69.411 254.931 69.6993 256.204 70.2758 257.08C70.8598 257.956 71.7283 258.394 72.8812 258.394C74.0342 258.394 74.8878 257.99 75.4418 257.181C75.9958 256.373 76.2841 255.133 76.3065 253.464V250.398ZM89.7013 253.385H86.8263V260H84.7599V243.648H89.342C90.9442 243.648 92.1571 244.068 92.9806 244.906C93.8042 245.737 94.216 246.958 94.216 248.567C94.216 249.578 93.9914 250.462 93.5422 251.218C93.1004 251.966 92.4715 252.532 91.6554 252.914L94.8224 259.865V260H92.61L89.7013 253.385ZM86.8263 251.622H89.3195C90.1805 251.622 90.8656 251.345 91.3747 250.791C91.8913 250.237 92.1496 249.496 92.1496 248.567C92.1496 246.471 91.1987 245.423 89.2971 245.423H86.8263V251.622ZM110.879 260H108.812L102.265 247.399V260H100.199V243.648H102.265L108.835 256.305V243.648H110.879V260ZM125.498 252.442H119.714V258.237H126.452V260H117.659V243.648H126.34V245.423H119.714V250.679H125.498V252.442ZM137.253 253.385H134.378V260H132.312V243.648H136.894C138.496 243.648 139.709 244.068 140.532 244.906C141.356 245.737 141.768 246.958 141.768 248.567C141.768 249.578 141.543 250.462 141.094 251.218C140.652 251.966 140.023 252.532 139.207 252.914L142.374 259.865V260H140.162L137.253 253.385ZM134.378 251.622H136.871C137.732 251.622 138.417 251.345 138.926 250.791C139.443 250.237 139.701 249.496 139.701 248.567C139.701 246.471 138.75 245.423 136.849 245.423H134.378V251.622ZM147.604 258.911C147.604 258.551 147.709 258.252 147.919 258.012C148.136 257.773 148.458 257.653 148.885 257.653C149.311 257.653 149.633 257.773 149.85 258.012C150.075 258.252 150.187 258.551 150.187 258.911C150.187 259.255 150.075 259.543 149.85 259.775C149.633 260.007 149.311 260.124 148.885 260.124C148.458 260.124 148.136 260.007 147.919 259.775C147.709 259.543 147.604 259.255 147.604 258.911ZM167.288 254.812C167.198 256.563 166.704 257.904 165.806 258.832C164.915 259.76 163.653 260.225 162.021 260.225C160.381 260.225 159.079 259.603 158.113 258.36C157.147 257.11 156.664 255.418 156.664 253.284V250.319C156.664 248.193 157.158 246.512 158.147 245.277C159.142 244.042 160.497 243.424 162.212 243.424C163.792 243.424 165.012 243.899 165.873 244.85C166.742 245.793 167.213 247.145 167.288 248.904H165.211C165.121 247.572 164.84 246.621 164.368 246.052C163.897 245.483 163.178 245.198 162.212 245.198C161.096 245.198 160.239 245.636 159.64 246.512C159.041 247.381 158.742 248.657 158.742 250.342V253.34C158.742 254.995 159.019 256.264 159.573 257.147C160.134 258.031 160.95 258.473 162.021 258.473C163.092 258.473 163.863 258.207 164.335 257.675C164.806 257.144 165.098 256.189 165.211 254.812H167.288ZM183.94 253.262C183.94 255.493 183.464 257.211 182.514 258.417C181.563 259.622 180.211 260.225 178.459 260.225C176.775 260.225 175.442 259.641 174.461 258.473C173.488 257.297 172.983 255.639 172.945 253.498V250.42C172.945 248.234 173.428 246.523 174.394 245.288C175.36 244.045 176.707 243.424 178.437 243.424C180.159 243.424 181.499 244.019 182.457 245.209C183.423 246.392 183.917 248.084 183.94 250.286V253.262ZM181.885 250.398C181.885 248.668 181.6 247.384 181.031 246.546C180.47 245.7 179.605 245.277 178.437 245.277C177.306 245.277 176.449 245.704 175.865 246.557C175.289 247.411 174.997 248.668 174.989 250.331V253.262C174.989 254.931 175.277 256.204 175.854 257.08C176.438 257.956 177.306 258.394 178.459 258.394C179.612 258.394 180.466 257.99 181.02 257.181C181.574 256.373 181.862 255.133 181.885 253.464V250.398ZM189.047 258.911C189.047 258.551 189.151 258.252 189.361 258.012C189.578 257.773 189.9 257.653 190.327 257.653C190.754 257.653 191.075 257.773 191.293 258.012C191.517 258.252 191.63 258.551 191.63 258.911C191.63 259.255 191.517 259.543 191.293 259.775C191.075 260.007 190.754 260.124 190.327 260.124C189.9 260.124 189.578 260.007 189.361 259.775C189.151 259.543 189.047 259.255 189.047 258.911ZM208.225 243.648V255.272C208.21 256.822 207.761 258.035 206.877 258.911C205.994 259.787 204.762 260.225 203.183 260.225C201.565 260.225 200.33 259.798 199.476 258.944C198.623 258.083 198.189 256.859 198.174 255.272V243.648H200.218V255.193C200.218 256.294 200.45 257.118 200.914 257.664C201.386 258.203 202.142 258.473 203.183 258.473C204.231 258.473 204.987 258.203 205.451 257.664C205.923 257.118 206.159 256.294 206.159 255.193V243.648H208.225ZM218.273 252.464L216.667 254.407V260H214.612V243.648H216.667V251.543L218.015 249.758L222.417 243.648H224.888L219.576 250.847L225.303 260H222.844L218.273 252.464Z" fill="white"/>
</svg>
