<svg width="1885" height="587" viewBox="0 0 1885 587" fill="none" xmlns="http://www.w3.org/2000/svg">
<rect width="1884" height="587" fill="#A39161"/>
<path d="M997.178 390.633C1100.24 52.4742 374.339 29.3523 2 3V587H1884V3C1543.12 311.151 894.115 728.792 997.178 390.633Z" fill="#A08A4D"/>
<path d="M996.5 328C1099.7 62.8 372.833 44.6667 0 24V482H1884.5V24C1543.17 265.667 893.3 593.2 996.5 328Z" fill="#8D7942"/>
<path d="M996.5 360C1099.7 94.8 372.833 76.6667 0 56V514H1884.5V56C1543.17 297.667 893.3 625.2 996.5 360Z" fill="#7E6D3F"/>
<path d="M996.5 395C1099.7 129.8 372.833 111.667 0 91V549H1884.5V91C1543.17 332.667 893.3 660.2 996.5 395Z" fill="#756437"/>
<path d="M996.5 433C1099.7 167.8 372.833 149.667 0 129V587H1884.5V129C1543.17 370.667 893.3 698.2 996.5 433Z" fill="#63542B"/>
</svg>
